<svg width="103" height="38" viewBox="0 0 103 38" fill="none" xmlns="http://www.w3.org/2000/svg">
<path d="M7.73176 14.8417C7.56955 14.7606 7.40735 14.7335 7.24514 14.7335C7.02887 14.7335 6.65039 14.8146 6.43412 15.3283L4.16325 20.8703L1.83832 15.3283C1.70315 14.9498 1.40577 14.7335 1.0273 14.7335C0.865092 14.7335 0.702887 14.7606 0.540682 14.8417C0.0811023 15.0579 0 15.4094 0 15.6256C0 15.7608 0.0270341 15.896 0.108136 16.0582L3.19003 23.3574C3.46037 23.9251 3.86588 24.0062 4.08215 24.0062H4.13622C4.37953 24.0062 4.81207 23.9251 5.08241 23.3574L8.19134 16.0312C8.24541 15.896 8.27244 15.7608 8.27244 15.6256C8.27244 15.3012 8.0832 15.0039 7.73176 14.8417Z" fill="#333333"/>
<path d="M15.058 16.6259C15.4095 16.6259 15.6257 16.4907 15.7339 16.3556C15.842 16.2474 16.0042 16.0312 16.0042 15.6797C16.0042 15.3283 15.869 15.112 15.7339 15.0039C15.6257 14.8957 15.4095 14.7335 15.058 14.7335H10.5974C10.2459 14.7335 10.0297 14.8687 9.92153 15.0039C9.81339 15.112 9.65118 15.3283 9.65118 15.6797V23.0871C9.65118 23.4385 9.78635 23.6548 9.92153 23.7629C10.0297 23.8711 10.2459 24.0333 10.5974 24.0333H15.085C15.4365 24.0333 15.6528 23.8981 15.7609 23.7629C15.869 23.6548 16.0312 23.4385 16.0312 23.0871C16.0312 22.7356 15.8961 22.5193 15.7609 22.4112C15.6528 22.3031 15.4365 22.1409 15.085 22.1409H11.5165V20.2755H13.5711C13.9226 20.2755 14.1388 20.1403 14.247 20.0052C14.3551 19.897 14.5173 19.6808 14.5173 19.3293C14.5173 18.9779 14.3822 18.7616 14.247 18.6535C14.1388 18.5453 13.9226 18.3831 13.5711 18.3831H11.5165V16.5989H15.058V16.6259Z" fill="#333333"/>
<path d="M22.7087 22.1409H19.6808V15.6797C19.6808 15.112 19.3294 14.7335 18.7346 14.7335C18.1669 14.7335 17.7885 15.085 17.7885 15.6797V23.0871C17.7885 23.6548 18.1399 24.0333 18.7346 24.0333H22.7087C23.2764 24.0333 23.6549 23.6818 23.6549 23.0871C23.6549 22.5193 23.3034 22.1409 22.7087 22.1409Z" fill="#333333"/>
<path d="M29.332 14.7335H27.8451C26.7908 14.7335 25.9798 14.9768 25.4391 15.5175C24.8984 16.0582 24.6281 16.8692 24.6281 17.9235V20.8162C24.6281 21.8705 24.8984 22.6816 25.4391 23.2222C25.9798 23.7629 26.7908 24.0333 27.8451 24.0333H29.332C30.3864 24.0333 31.1974 23.7629 31.7381 23.2222C32.2787 22.6816 32.5491 21.8705 32.5491 20.8162V17.9506C32.5491 16.8963 32.2787 16.0852 31.7381 15.5445C31.1974 15.0039 30.3864 14.7335 29.332 14.7335ZM26.4934 17.9235C26.4934 17.4369 26.5745 17.1666 26.6286 17.0314C26.6827 16.8692 26.7908 16.7881 26.953 16.707C27.0882 16.6529 27.3045 16.5989 27.737 16.5989C27.764 16.5989 27.7911 16.5989 27.8181 16.5989H29.305C29.7916 16.5989 30.0619 16.68 30.1971 16.734C30.3593 16.7881 30.4404 16.8962 30.5215 17.0585C30.5756 17.1936 30.6567 17.464 30.6567 17.9506V20.8162C30.6567 21.3028 30.5756 21.5732 30.5215 21.7083C30.4675 21.8705 30.3593 21.9516 30.1971 22.0327C30.0619 22.0868 29.8186 22.1679 29.305 22.1679H27.8451C27.3585 22.1679 27.0882 22.0868 26.953 22.0327C26.7908 21.9787 26.7097 21.8705 26.6286 21.7083C26.5745 21.5732 26.4934 21.3028 26.4934 20.8162V17.9235Z" fill="#333333"/>
<path d="M38.9562 18.3291H37.4152C37.0367 18.3291 36.8745 18.275 36.7934 18.248C36.7123 18.2209 36.6583 18.1669 36.6312 18.0858C36.6042 18.0047 36.5501 17.8154 36.5501 17.464C36.5501 17.1125 36.6042 16.9503 36.6312 16.8422C36.6583 16.7611 36.7123 16.7341 36.7664 16.68C36.8475 16.653 37.0097 16.5989 37.3882 16.5989H38.8751C39.2806 16.5989 39.4698 16.653 39.5239 16.68C39.5509 16.707 39.632 16.7341 39.6861 16.8963C39.7131 17.1396 39.8212 17.3559 39.9564 17.491C40.1186 17.6532 40.3349 17.7343 40.6323 17.7343C40.9296 17.7343 41.173 17.6532 41.3352 17.464C41.4703 17.3288 41.6055 17.0855 41.5514 16.707V16.68C41.3892 15.7608 40.7945 14.6795 38.8751 14.6795H37.3882C36.4961 14.6795 35.8202 14.9228 35.3606 15.3824C34.901 15.8419 34.6577 16.5178 34.6577 17.4099C34.6577 18.302 34.901 19.0049 35.3606 19.4645C35.8202 19.9241 36.5231 20.1674 37.4152 20.1674H38.9562C39.4968 20.1674 39.6861 20.3026 39.7401 20.3566C39.7942 20.4107 39.9294 20.5999 39.9294 21.1677C39.9294 21.5461 39.8753 21.7354 39.8483 21.8435C39.7942 21.9517 39.7401 22.0057 39.659 22.0328C39.5509 22.0868 39.3617 22.1139 38.9832 22.1139H37.1989C36.7123 22.1139 36.5231 22.0328 36.442 22.0057C36.415 21.9787 36.3068 21.9246 36.2527 21.7083C36.1987 21.438 36.1176 21.2217 35.9554 21.0866C35.7932 20.9244 35.5769 20.8433 35.3066 20.8433C34.9551 20.8433 34.7118 20.9784 34.6037 21.1136C34.4685 21.2488 34.3333 21.465 34.3874 21.8435V21.8706C34.4955 22.5734 34.8199 23.1141 35.3066 23.4656C35.7661 23.817 36.4149 23.9792 37.226 23.9792H39.0102C39.9564 23.9792 40.6593 23.7359 41.1459 23.2763C41.6325 22.7897 41.8758 22.0868 41.8758 21.1406C41.8758 20.1944 41.6325 19.4645 41.1459 19.0049C40.6052 18.5724 39.8753 18.3291 38.9562 18.3291Z" fill="#333333"/>
<path d="M50.0942 15.6797C50.0942 15.112 49.7428 14.7335 49.148 14.7335H43.2546C42.6869 14.7335 42.3084 15.085 42.3084 15.6797C42.3084 16.2474 42.6599 16.6259 43.2546 16.6259H45.2551V23.0871C45.2551 23.6548 45.6066 24.0333 46.2013 24.0333C46.5528 24.0333 46.769 23.8981 46.8772 23.7629C46.9853 23.6548 47.1475 23.4385 47.1475 23.0871V16.6259H49.148C49.7428 16.6259 50.0942 16.2745 50.0942 15.6797Z" fill="#333333"/>
<path d="M54.7982 15.4094C54.636 15.0039 54.3115 14.7606 53.879 14.7335H53.8249C53.3924 14.7335 53.0409 14.9768 52.8517 15.3823L49.8779 22.7086C49.8239 22.8438 49.7968 22.9789 49.7968 23.1141C49.7968 23.4926 50.0131 23.7899 50.4186 23.9522C50.5538 24.0062 50.6619 24.0333 50.7971 24.0333C51.1756 24.0333 51.473 23.817 51.6352 23.4385L52.1758 22.0598H55.501L56.0688 23.4385C56.231 23.817 56.5283 24.0333 56.8798 24.0333C57.042 24.0333 57.1772 24.0062 57.2853 23.9522C57.6638 23.7899 57.88 23.4926 57.88 23.1411C57.88 22.9789 57.853 22.8438 57.7989 22.7356L54.7982 15.4094ZM54.7171 20.1674H52.9058L53.7979 17.9235L54.7171 20.1674Z" fill="#333333"/>
<path d="M66.9095 15.0039C66.8013 14.8957 66.585 14.7335 66.2336 14.7335C65.8822 14.7335 65.6659 14.8687 65.5577 15.0039C65.4496 15.112 65.2874 15.3283 65.2874 15.6797V20.3837L61.2864 15.2201V15.1931C61.1782 15.0579 61.043 14.9498 60.9349 14.8687C60.7997 14.7876 60.6105 14.7335 60.4483 14.7335C60.0969 14.7335 59.8806 14.8687 59.7724 15.0039C59.6643 15.112 59.5021 15.3283 59.5021 15.6797V23.0871C59.5021 23.4385 59.6373 23.6548 59.7724 23.7629C59.8806 23.8711 60.0969 24.0333 60.4483 24.0333C60.7997 24.0333 61.016 23.8981 61.1242 23.7629C61.2323 23.6548 61.3945 23.4385 61.3945 23.0871V18.3831L65.3955 23.5466C65.5037 23.7088 65.6389 23.817 65.774 23.8981C65.9092 23.9792 66.0984 24.0333 66.2606 24.0333C66.6121 24.0333 66.8284 23.8981 66.9365 23.7629C67.0446 23.6548 67.2068 23.4385 67.2068 23.0871V15.6797C67.1798 15.3283 67.0446 15.112 66.9095 15.0039Z" fill="#333333"/>
<path d="M73.5058 14.7335H70.505C70.1535 14.7335 69.9373 14.8687 69.8291 15.0039C69.721 15.112 69.5588 15.3283 69.5588 15.6797V23.0871C69.5588 23.4385 69.6939 23.6548 69.8291 23.7629C69.9373 23.8711 70.1535 24.0333 70.505 24.0333H73.5058C74.6953 24.0333 75.6144 23.7359 76.2092 23.1411C76.8039 22.5464 77.1013 21.6543 77.1013 20.4377V18.3291C77.1013 17.1396 76.8039 16.2204 76.2092 15.6256C75.6144 15.0309 74.6953 14.7335 73.5058 14.7335ZM75.2089 20.4377C75.2089 20.9243 75.1548 21.2758 75.0467 21.5461C74.9656 21.7624 74.8034 21.8976 74.6142 21.9787C74.3709 22.0868 73.9924 22.1409 73.5058 22.1409H71.4512V16.6259H73.5058C73.9924 16.6259 74.3438 16.68 74.6142 16.7881C74.8304 16.8692 74.9656 17.0314 75.0467 17.2207C75.1548 17.464 75.2089 17.8424 75.2089 18.3291V20.4377Z" fill="#333333"/>
<path d="M83.2921 15.4094C83.1299 15.0039 82.8055 14.7606 82.373 14.7335H82.3189C81.8864 14.7335 81.5349 14.9768 81.3457 15.3823L78.399 22.7086C78.3449 22.8438 78.3179 22.9789 78.3179 23.1141C78.3179 23.4926 78.5341 23.7899 78.9397 23.9522C79.0748 24.0062 79.183 24.0333 79.3181 24.0333C79.6966 24.0333 79.994 23.817 80.1562 23.4385L80.6969 22.0598H84.0221L84.5898 23.4385C84.752 23.817 85.0494 24.0333 85.4008 24.0333C85.563 24.0333 85.6982 24.0062 85.8063 23.9522C86.1848 23.7899 86.4011 23.4926 86.4011 23.1411C86.4011 22.9789 86.374 22.8438 86.32 22.7356L83.2921 15.4094ZM83.2381 20.1674H81.4268L82.3189 17.9235L83.2381 20.1674Z" fill="#333333"/>
<path d="M91.8619 14.7335H88.9423C88.5908 14.7335 88.3745 14.8687 88.2664 15.0039C88.1583 15.112 87.9961 15.3283 87.9961 15.6797V23.0871C87.9961 23.4385 88.1312 23.6548 88.2664 23.7629C88.3745 23.8711 88.5908 24.0333 88.9423 24.0333C89.2937 24.0333 89.51 23.8981 89.6181 23.7629C89.7262 23.6548 89.8885 23.4385 89.8885 23.0871V20.654H90.9698L92.7811 23.6818C93.0244 24.0603 93.3488 24.1414 93.5651 24.1414C93.7273 24.1414 93.8895 24.0873 94.0517 23.9792C94.3491 23.7899 94.5383 23.5196 94.5383 23.1952C94.5383 23.006 94.4843 22.8438 94.4032 22.7086L93.0514 20.4648C93.457 20.3025 93.8084 20.0592 94.0787 19.7078C94.4302 19.2482 94.6194 18.6264 94.6194 17.8695V17.491C94.6194 16.6259 94.3761 15.923 93.8895 15.4364C93.4029 14.9768 92.727 14.7335 91.8619 14.7335ZM92.7541 17.8965C92.7541 18.248 92.7 18.4913 92.5648 18.5994C92.4567 18.7075 92.1863 18.7886 91.8619 18.7886H89.8885V16.6259H91.8619C92.2134 16.6259 92.4567 16.68 92.5648 16.8151C92.673 16.9233 92.7541 17.1936 92.7541 17.518V17.8965Z" fill="#333333"/>
<path d="M102.054 14.7335H96.1604C95.5927 14.7335 95.2142 15.085 95.2142 15.6797C95.2142 16.2474 95.5656 16.6259 96.1604 16.6259H98.1609V23.0871C98.1609 23.6548 98.5123 24.0333 99.1071 24.0333C99.4585 24.0333 99.6748 23.8981 99.7829 23.7629C99.8911 23.6548 100.053 23.4385 100.053 23.0871V16.6259H102.054C102.622 16.6259 103 16.2745 103 15.6797C103 15.112 102.649 14.7335 102.054 14.7335Z" fill="#333333"/>
<path d="M57.069 4.05512C56.6906 4.05512 56.3121 4.10919 55.9336 4.21732L54.5549 0.91916H56.7717V0H53.879C53.7168 0 53.5816 0.0811023 53.5005 0.189239C53.4194 0.324409 53.3924 0.486614 53.4465 0.621785L54.1223 2.2168H49.0669L48.4451 0.91916C48.364 0.756955 48.2018 0.648819 48.0396 0.648819H46.4987V1.56798H47.7693L48.1748 2.43307L48.1478 2.4601L47.3097 4.27139C46.8772 4.10919 46.4176 4.02808 45.958 4.02808C43.7412 4.02808 41.9029 5.83937 41.9029 8.0832C41.9029 10.327 43.7142 12.1383 45.958 12.1383C47.9856 12.1383 49.6617 10.6244 49.9591 8.67795H50.2835C50.4457 9.24567 50.9593 9.67821 51.5811 9.67821C52.3381 9.67821 52.9328 9.05643 52.9328 8.32651C52.9328 8.1643 52.9058 8.02913 52.8517 7.86693L53.095 7.32625C53.0409 7.56955 53.0139 7.81286 53.0139 8.0832C53.0139 10.3 54.8252 12.1383 57.069 12.1383C59.2858 12.1383 61.1242 10.327 61.1242 8.0832C61.1242 5.83937 59.2858 4.05512 57.069 4.05512ZM45.931 11.2192C44.2008 11.2192 42.795 9.81338 42.795 8.0832C42.795 6.35302 44.2008 4.94724 45.931 4.94724C46.2824 4.94724 46.6068 5.00131 46.9042 5.10945L45.8228 7.38031C45.4444 7.43438 45.174 7.73176 45.174 8.13727C45.174 8.54278 45.4984 8.89422 45.931 8.89422C46.1202 8.89422 46.3095 8.81312 46.4446 8.70499H49.0129C48.7425 10.1378 47.4719 11.2192 45.931 11.2192ZM46.6609 7.78583L47.7152 5.51496C48.4452 6.02861 48.9588 6.83963 49.0669 7.78583H46.6609ZM51.5541 8.78609C51.3108 8.78609 51.0945 8.56981 51.0945 8.32651C51.0945 8.0832 51.3108 7.86693 51.5541 7.86693C51.7974 7.86693 52.0137 8.0832 52.0137 8.32651C52.0137 8.56981 51.8244 8.78609 51.5541 8.78609ZM52.2029 7.13701C52.0137 7.02887 51.7974 6.9748 51.5811 6.9748C51.0134 6.9748 50.5538 7.29921 50.3375 7.78583H49.9861C49.878 6.48819 49.1751 5.35276 48.1207 4.70394L48.6885 3.51444L50.2564 6.8126L51.0675 6.43412L49.4995 3.16299H54.0682L52.2029 7.13701ZM54.7711 3.78478L55.0955 4.56877C54.663 4.81207 54.2575 5.13648 53.9601 5.51496L54.7711 3.78478ZM57.069 11.2192C55.3389 11.2192 53.9331 9.81338 53.9331 8.0832C53.9331 6.94777 54.5549 5.94751 55.447 5.40682L56.4202 7.70472C56.3661 7.81286 56.3121 7.94803 56.3121 8.0832C56.3121 8.48871 56.6365 8.84016 57.069 8.84016C57.4745 8.84016 57.826 8.51575 57.826 8.0832C57.826 7.73176 57.5827 7.43438 57.2583 7.35328L56.285 5.05538C56.5284 5.00131 56.7987 4.94724 57.069 4.94724C58.7992 4.94724 60.205 6.35302 60.205 8.0832C60.205 9.81338 58.7992 11.2192 57.069 11.2192Z" fill="#FFCC01"/>
<path d="M52.5814 10.0026H51.0404V10.9217H52.5814V10.0026Z" fill="#FFCC01"/>
<path d="M11.0029 12.1386V7.65091H37.4152V6.56955H9.92154V12.1386H11.0029Z" fill="#FFCC01"/>
<path d="M92.0512 12.1383H93.1325V6.56931H65.5848V7.65067H92.0512V12.1383Z" fill="#FFCC01"/>
<path d="M92.0512 26.6287V36.7935H11.0029V26.6287H9.92154V37.8749H93.1326V26.6287H92.0512Z" fill="#FFCC01"/>
<path d="M19.5457 27.9534C19.5457 27.8723 19.5727 27.8182 19.6268 27.7641C19.6808 27.71 19.7349 27.683 19.816 27.683C19.8971 27.683 19.9782 27.71 20.0052 27.7641C20.0593 27.8182 20.0863 27.8723 20.0863 27.9534C20.0863 28.0345 20.0593 28.0885 20.0052 28.1426C19.9512 28.1967 19.8971 28.2237 19.816 28.2237C19.7349 28.2237 19.6538 28.1967 19.6268 28.1426C19.5997 28.0885 19.5457 28.0345 19.5457 27.9534ZM20.0052 32.5762H19.5997V28.9807H20.0052V32.5762Z" fill="#888888"/>
<path d="M24.5199 32.5763H24.1144V30.9273H22.195V32.5763H21.7895V28.9808H22.195V30.5758H24.1144V28.9808H24.5199V32.5763Z" fill="#888888"/>
<path d="M28.8184 29.3322H27.5207V32.5763H27.1152V29.3322H25.8716V28.9808H28.8184V29.3322Z" fill="#888888"/>
<path d="M31.2784 32.6304C30.9811 32.6304 30.7107 32.5493 30.4404 32.4141C30.1971 32.2519 30.0078 32.0627 29.8727 31.7923C29.7375 31.522 29.6564 31.2246 29.6564 30.9002V30.7651C29.6564 30.4136 29.7105 30.1162 29.8456 29.8459C29.9808 29.5756 30.1701 29.3593 30.4134 29.1971C30.6567 29.0349 30.9 28.9538 31.1973 28.9538C31.6299 28.9538 31.9813 29.0889 32.2246 29.3863C32.468 29.6837 32.6031 30.0892 32.6031 30.6028V30.8191H30.0349V30.9002C30.0349 31.3057 30.143 31.6572 30.3863 31.9275C30.6296 32.1979 30.9 32.333 31.2784 32.333C31.4947 32.333 31.684 32.306 31.8462 32.2249C32.0084 32.1438 32.1435 32.0357 32.2787 31.8464L32.522 32.0357C32.2517 32.4412 31.8462 32.6304 31.2784 32.6304ZM31.1973 29.2511C30.9 29.2511 30.6567 29.3593 30.4404 29.5756C30.2241 29.7918 30.116 30.0892 30.0619 30.4677H32.2246V30.4136C32.2246 30.0622 32.1165 29.7918 31.9273 29.5756C31.7651 29.3593 31.5218 29.2511 31.1973 29.2511Z" fill="#888888"/>
<path d="M36.9556 30.8191C36.9556 31.3868 36.8205 31.8194 36.5772 32.1438C36.3339 32.4682 36.0094 32.6304 35.5769 32.6304C35.0903 32.6304 34.7118 32.4682 34.4415 32.1168V33.9551H34.063V28.9808H34.4415L34.4685 29.4944C34.7388 29.116 35.0903 28.9267 35.6039 28.9267C36.0365 28.9267 36.3609 29.0889 36.6042 29.4133C36.8475 29.7378 36.9827 30.1973 36.9827 30.765V30.8191H36.9556ZM36.5772 30.738C36.5772 30.2784 36.4961 29.927 36.3068 29.6566C36.1176 29.3863 35.8472 29.2511 35.5228 29.2511C35.2795 29.2511 35.0633 29.3052 34.901 29.4404C34.7388 29.5485 34.6037 29.7378 34.4955 29.954V31.6842C34.6037 31.9005 34.7388 32.0357 34.901 32.1438C35.0633 32.2519 35.2795 32.306 35.5228 32.306C35.8472 32.306 36.1176 32.1708 36.3068 31.9005C36.469 31.6301 36.5772 31.2517 36.5772 30.738Z" fill="#888888"/>
<path d="M41.2811 32.5763H40.8756V30.9273H38.9561V32.5763H38.5506V28.9808H38.9561V30.5758H40.8756V28.9808H41.2811V32.5763Z" fill="#888888"/>
<path d="M44.39 32.6304C44.0926 32.6304 43.8223 32.5493 43.5519 32.4141C43.3086 32.2519 43.1194 32.0627 42.9842 31.7923C42.849 31.522 42.7679 31.2246 42.7679 30.9002V30.7651C42.7679 30.4136 42.822 30.1162 42.9572 29.8459C43.0924 29.5756 43.2816 29.3593 43.5249 29.1971C43.7682 29.0349 44.0115 28.9538 44.3089 28.9538C44.7414 28.9538 45.0929 29.0889 45.3362 29.3863C45.5795 29.6837 45.7147 30.0892 45.7147 30.6028V30.8191H43.1464V30.9002C43.1464 31.3057 43.2546 31.6572 43.4979 31.9275C43.7412 32.1979 44.0115 32.333 44.39 32.333C44.6063 32.333 44.7955 32.306 44.9577 32.2249C45.1199 32.1438 45.2551 32.0357 45.3903 31.8464L45.6336 32.0357C45.3903 32.4412 44.9577 32.6304 44.39 32.6304ZM44.3359 29.2511C44.0385 29.2511 43.7952 29.3593 43.579 29.5756C43.3627 29.7918 43.2546 30.0892 43.2005 30.4677H45.3632V30.4136C45.3632 30.0622 45.2551 29.7918 45.0658 29.5756C44.8766 29.3593 44.6333 29.2511 44.3359 29.2511Z" fill="#888888"/>
<path d="M49.7428 29.3322H48.4451V32.5763H48.0396V29.3322H46.769V28.9808H49.7428V29.3322Z" fill="#888888"/>
<path d="M52.284 30.6027H50.689V30.2783H52.284V30.6027Z" fill="#888888"/>
<path d="M55.6632 32.0357L57.096 28.9808H57.5826V32.5763H57.1771V29.6296L55.7984 32.5763H55.5281L54.1223 29.5756V32.5763H53.7168V28.9808H54.2304L55.6632 32.0357Z" fill="#888888"/>
<path d="M61.5837 32.5763C61.5567 32.4682 61.5296 32.306 61.5026 32.0627C61.3674 32.2519 61.1782 32.3871 60.9619 32.4682C60.7456 32.5763 60.5294 32.6034 60.2861 32.6034C59.9346 32.6034 59.6643 32.4952 59.448 32.306C59.2317 32.1167 59.1236 31.8734 59.1236 31.5761C59.1236 31.2246 59.2588 30.9543 59.5561 30.738C59.8535 30.5217 60.259 30.4406 60.7727 30.4406H61.5026V30.0351C61.5026 29.7918 61.4215 29.5755 61.2593 29.4404C61.0971 29.3052 60.8808 29.2241 60.5564 29.2241C60.2861 29.2241 60.0428 29.3052 59.8806 29.4404C59.6913 29.5755 59.6102 29.7648 59.6102 29.954H59.2047C59.2047 29.6566 59.3399 29.4133 59.6102 29.2241C59.8806 29.0349 60.205 28.8997 60.5834 28.8997C60.989 28.8997 61.2863 29.0078 61.5296 29.1971C61.7729 29.3863 61.8811 29.6837 61.8811 30.0351V31.7383C61.8811 32.0897 61.9081 32.333 61.9892 32.5223V32.5493H61.5837V32.5763ZM60.3401 32.279C60.6105 32.279 60.8538 32.2249 61.043 32.0897C61.2593 31.9545 61.3945 31.7923 61.5026 31.5761V30.7921H60.7997C60.3942 30.7921 60.0968 30.8732 59.8806 31.0083C59.6643 31.1435 59.5561 31.3328 59.5561 31.5761C59.5561 31.7653 59.6372 31.9545 59.7724 32.0897C59.9076 32.2249 60.0968 32.279 60.3401 32.279Z" fill="#888888"/>
<path d="M65.8821 29.3322H64.0709V32.5763H63.6653V28.9808H65.8821V29.3322Z" fill="#888888"/>
<path d="M69.4506 32.5763C69.4236 32.4682 69.3966 32.306 69.3695 32.0627C69.2344 32.2519 69.0451 32.3871 68.8289 32.4682C68.6126 32.5763 68.3963 32.6034 68.153 32.6034C67.8016 32.6034 67.5312 32.4952 67.3149 32.306C67.0987 32.1167 66.9905 31.8734 66.9905 31.5761C66.9905 31.2246 67.1257 30.9543 67.4231 30.738C67.7205 30.5217 68.126 30.4406 68.6396 30.4406H69.3695V30.0351C69.3695 29.7918 69.2884 29.5755 69.1262 29.4404C68.964 29.3052 68.7478 29.2241 68.4233 29.2241C68.153 29.2241 67.9097 29.3052 67.7475 29.4404C67.5583 29.5755 67.4772 29.7648 67.4772 29.954H67.0716C67.0716 29.6566 67.2068 29.4133 67.4772 29.2241C67.7475 29.0349 68.0719 28.8997 68.4504 28.8997C68.8559 28.8997 69.1533 29.0078 69.3966 29.1971C69.6399 29.3863 69.748 29.6837 69.748 30.0351V31.7383C69.748 32.0897 69.7751 32.333 69.8562 32.5223V32.5493H69.4506V32.5763ZM68.2071 32.279C68.4774 32.279 68.7207 32.2249 68.91 32.0897C69.1262 31.9545 69.2614 31.7923 69.3695 31.5761V30.7921H68.6667C68.2611 30.7921 67.9638 30.8732 67.7475 31.0083C67.5312 31.1435 67.4231 31.3328 67.4231 31.5761C67.4231 31.7653 67.5042 31.9545 67.6394 32.0897C67.7745 32.2249 67.9638 32.279 68.2071 32.279Z" fill="#888888"/>
<path d="M73.5868 29.927C73.5868 29.7107 73.5057 29.5485 73.3435 29.4133C73.1813 29.3052 72.965 29.2511 72.6677 29.2511C72.4244 29.2511 72.1811 29.3052 72.0189 29.4404C71.8296 29.5755 71.7485 29.7377 71.7485 29.927H71.37C71.37 29.6296 71.5052 29.3863 71.7485 29.1971C71.9918 29.0078 72.3162 28.8997 72.6947 28.8997C73.1002 28.8997 73.4246 28.9808 73.6679 29.17C73.8842 29.3593 74.0194 29.6026 74.0194 29.927C74.0194 30.0892 73.9653 30.2514 73.8572 30.3866C73.749 30.5217 73.5868 30.6299 73.3976 30.711C73.8572 30.8461 74.0735 31.1165 74.0735 31.5761C74.0735 31.9005 73.9383 32.1438 73.695 32.333C73.4517 32.5223 73.1273 32.6034 72.6947 32.6034C72.2892 32.6034 71.9648 32.4952 71.6945 32.306C71.4241 32.1167 71.2889 31.8464 71.2889 31.522H71.6945C71.6945 31.7383 71.8026 31.9275 71.9918 32.0627C72.1811 32.1979 72.4244 32.279 72.6947 32.279C72.9921 32.279 73.2354 32.2249 73.3976 32.0897C73.5598 31.9545 73.6679 31.7923 73.6679 31.5761C73.6679 31.3328 73.5868 31.1706 73.4246 31.0624C73.2624 30.9543 73.0191 30.9002 72.6947 30.9002H72.154V30.5488H72.7758C73.3165 30.5488 73.5868 30.3595 73.5868 29.927Z" fill="#888888"/>
<path d="M77.9664 28.9808H78.3719V32.5763H77.9664V29.6296L76.0199 32.5763H75.6144V28.9808H76.0199V31.9275L77.9664 28.9808Z" fill="#888888"/>
<path d="M82.8595 32.5763H82.454V30.9273H80.5346V32.5763H80.1291V28.9808H80.5346V30.5758H82.454V28.9808H82.8595V32.5763Z" fill="#888888"/>
</svg>
