<svg width="205" height="193" viewBox="0 0 205 193" fill="none" xmlns="http://www.w3.org/2000/svg">
<path d="M15.3582 29.4814C15.036 29.3203 14.7138 29.2666 14.3916 29.2666C13.962 29.2666 13.2102 29.4277 12.7806 30.448L8.26982 41.4565L3.65161 30.448C3.38311 29.6962 2.79241 29.2666 2.0406 29.2666C1.7184 29.2666 1.3962 29.3203 1.074 29.4814C0.1611 29.911 0 30.6091 0 31.0387C0 31.3072 0.0537001 31.5757 0.2148 31.8979L6.33661 46.3969C6.87361 47.5246 7.67912 47.6857 8.10872 47.6857H8.21612C8.69942 47.6857 9.55862 47.5246 10.0956 46.3969L16.2711 31.8442C16.3785 31.5757 16.4322 31.3072 16.4322 31.0387C16.4322 30.3943 16.0563 29.8036 15.3582 29.4814Z" fill="white"/>
<path d="M29.9109 33.0256C30.609 33.0256 31.0386 32.7571 31.2534 32.4886C31.4682 32.2738 31.7904 31.8442 31.7904 31.1461C31.7904 30.448 31.5219 30.0184 31.2534 29.8036C31.0386 29.5888 30.609 29.2666 29.9109 29.2666H21.0504C20.3523 29.2666 19.9227 29.5351 19.7079 29.8036C19.4931 30.0184 19.1709 30.448 19.1709 31.1461V45.8599C19.1709 46.558 19.4394 46.9876 19.7079 47.2024C19.9227 47.4172 20.3523 47.7394 21.0504 47.7394H29.9646C30.6627 47.7394 31.0923 47.4709 31.3071 47.2024C31.5219 46.9876 31.8441 46.558 31.8441 45.8599C31.8441 45.1618 31.5756 44.7322 31.3071 44.5174C31.0923 44.3026 30.6627 43.9804 29.9646 43.9804H22.8762V40.2751H26.9574C27.6555 40.2751 28.0851 40.0066 28.2999 39.7381C28.5147 39.5233 28.8369 39.0937 28.8369 38.3956C28.8369 37.6975 28.5684 37.2679 28.2999 37.0531C28.0851 36.8383 27.6555 36.5161 26.9574 36.5161H22.8762V32.9719H29.9109V33.0256Z" fill="white"/>
<path d="M45.1081 43.9804H39.0937V31.1461C39.0937 30.0184 38.3956 29.2666 37.2142 29.2666C36.0865 29.2666 35.3347 29.9647 35.3347 31.1461V45.8599C35.3347 46.9876 36.0328 47.7394 37.2142 47.7394H45.1081C46.2358 47.7394 46.9876 47.0413 46.9876 45.8599C46.9876 44.7322 46.2895 43.9804 45.1081 43.9804Z" fill="white"/>
<path d="M58.2646 29.2666H55.3111C53.2168 29.2666 51.6058 29.7499 50.5318 30.8239C49.4578 31.8979 48.9208 33.5089 48.9208 35.6032V41.3491C48.9208 43.4434 49.4578 45.0544 50.5318 46.1284C51.6058 47.2024 53.2168 47.7394 55.3111 47.7394H58.2646C60.3589 47.7394 61.9699 47.2024 63.0439 46.1284C64.1179 45.0544 64.6549 43.4434 64.6549 41.3491V35.6569C64.6549 33.5626 64.1179 31.9516 63.0439 30.8776C61.9699 29.8036 60.3589 29.2666 58.2646 29.2666ZM52.6261 35.6032C52.6261 34.6366 52.7872 34.0996 52.8946 33.8311C53.002 33.5089 53.2168 33.3478 53.539 33.1867C53.8075 33.0793 54.2371 32.9719 55.0963 32.9719C55.15 32.9719 55.2037 32.9719 55.2574 32.9719H58.2109C59.1775 32.9719 59.7145 33.133 59.983 33.2404C60.3052 33.3478 60.4663 33.5626 60.6274 33.8848C60.7348 34.1533 60.8959 34.6903 60.8959 35.6569V41.3491C60.8959 42.3157 60.7348 42.8527 60.6274 43.1212C60.52 43.4434 60.3052 43.6045 59.983 43.7656C59.7145 43.873 59.2312 44.0341 58.2109 44.0341H55.3111C54.3445 44.0341 53.8075 43.873 53.539 43.7656C53.2168 43.6582 53.0557 43.4434 52.8946 43.1212C52.7872 42.8527 52.6261 42.3157 52.6261 41.3491V35.6032Z" fill="white"/>
<path d="M77.3819 36.4087H74.321C73.5692 36.4087 73.247 36.3013 73.0859 36.2476C72.9248 36.1939 72.8174 36.0865 72.7637 35.9254C72.71 35.7643 72.6026 35.3884 72.6026 34.6903C72.6026 33.9922 72.71 33.67 72.7637 33.4552C72.8174 33.2941 72.9248 33.2404 73.0322 33.133C73.1933 33.0793 73.5155 32.9719 74.2673 32.9719H77.2208C78.0263 32.9719 78.4022 33.0793 78.5096 33.133C78.5633 33.1867 78.7244 33.2404 78.8318 33.5626C78.8855 34.0459 79.1003 34.4755 79.3688 34.744C79.691 35.0662 80.1206 35.2273 80.7113 35.2273C81.302 35.2273 81.7853 35.0662 82.1075 34.6903C82.376 34.4218 82.6445 33.9385 82.5371 33.1867V33.133C82.2149 31.3072 81.0335 29.1592 77.2208 29.1592H74.2673C72.4952 29.1592 71.1527 29.6425 70.2398 30.5554C69.3269 31.4683 68.8436 32.8108 68.8436 34.5829C68.8436 36.355 69.3269 37.7512 70.2398 38.6641C71.1527 39.577 72.5489 40.0603 74.321 40.0603H77.3819C78.4559 40.0603 78.8318 40.3288 78.9392 40.4362C79.0466 40.5436 79.3151 40.9195 79.3151 42.0472C79.3151 42.799 79.2077 43.1749 79.154 43.3897C79.0466 43.6045 78.9392 43.7119 78.7781 43.7656C78.5633 43.873 78.1874 43.9267 77.4356 43.9267H73.8914C72.9248 43.9267 72.5489 43.7656 72.3878 43.7119C72.3341 43.6582 72.1193 43.5508 72.0119 43.1212C71.9045 42.5842 71.7434 42.1546 71.4212 41.8861C71.099 41.5639 70.6694 41.4028 70.1324 41.4028C69.4343 41.4028 68.951 41.6713 68.7362 41.9398C68.4677 42.2083 68.1992 42.6379 68.3066 43.3897V43.4434C68.5214 44.8396 69.1658 45.9136 70.1324 46.6117C71.0453 47.3098 72.3341 47.632 73.9451 47.632H77.4893C79.3688 47.632 80.765 47.1487 81.7316 46.2358C82.6982 45.2692 83.1815 43.873 83.1815 41.9935C83.1815 40.114 82.6982 38.6641 81.7316 37.7512C80.6576 36.892 79.2077 36.4087 77.3819 36.4087Z" fill="white"/>
<path d="M99.5063 31.1461C99.5063 30.0184 98.8082 29.2666 97.6268 29.2666H85.9202C84.7925 29.2666 84.0406 29.9647 84.0406 31.1461C84.0406 32.2738 84.7388 33.0256 85.9202 33.0256H89.894V45.8599C89.894 46.9876 90.5921 47.7394 91.7735 47.7394C92.4716 47.7394 92.9012 47.4709 93.116 47.2024C93.3308 46.9876 93.653 46.558 93.653 45.8599V33.0256H97.6268C98.8082 33.0256 99.5063 32.3275 99.5063 31.1461Z" fill="white"/>
<path d="M108.85 30.6091C108.528 29.8036 107.884 29.3203 107.024 29.2666H106.917C106.058 29.2666 105.36 29.7499 104.984 30.5554L99.0768 45.1081C98.9694 45.3766 98.9156 45.6451 98.9156 45.9136C98.9156 46.6654 99.3453 47.2561 100.151 47.5783C100.419 47.6857 100.634 47.7394 100.903 47.7394C101.654 47.7394 102.245 47.3098 102.567 46.558L103.641 43.8193H110.246L111.374 46.558C111.696 47.3098 112.287 47.7394 112.985 47.7394C113.307 47.7394 113.576 47.6857 113.791 47.5783C114.542 47.2561 114.972 46.6654 114.972 45.9673C114.972 45.6451 114.918 45.3766 114.811 45.1618L108.85 30.6091ZM108.689 40.0603H105.091L106.863 35.6032L108.689 40.0603Z" fill="white"/>
<path d="M132.908 29.8036C132.693 29.5888 132.263 29.2666 131.565 29.2666C130.867 29.2666 130.438 29.5351 130.223 29.8036C130.008 30.0184 129.686 30.448 129.686 31.1461V40.4899L121.738 30.2332V30.1795C121.523 29.911 121.255 29.6962 121.04 29.5351C120.772 29.374 120.396 29.2666 120.073 29.2666C119.375 29.2666 118.946 29.5351 118.731 29.8036C118.516 30.0184 118.194 30.448 118.194 31.1461V45.8599C118.194 46.558 118.462 46.9876 118.731 47.2024C118.946 47.4172 119.375 47.7394 120.073 47.7394C120.772 47.7394 121.201 47.4709 121.416 47.2024C121.631 46.9876 121.953 46.558 121.953 45.8599V36.5161L129.901 46.7728C130.115 47.095 130.384 47.3098 130.652 47.4709C130.921 47.632 131.297 47.7394 131.619 47.7394C132.317 47.7394 132.747 47.4709 132.962 47.2024C133.176 46.9876 133.499 46.558 133.499 45.8599V31.1461C133.445 30.448 133.176 30.0184 132.908 29.8036Z" fill="white"/>
<path d="M146.011 29.2666H140.05C139.352 29.2666 138.922 29.5351 138.707 29.8036C138.493 30.0184 138.17 30.448 138.17 31.1461V45.8599C138.17 46.558 138.439 46.9876 138.707 47.2024C138.922 47.4172 139.352 47.7394 140.05 47.7394H146.011C148.373 47.7394 150.199 47.1487 151.381 45.9673C152.562 44.7859 153.153 43.0138 153.153 40.5973V36.4087C153.153 34.0459 152.562 32.2201 151.381 31.0387C150.199 29.8573 148.373 29.2666 146.011 29.2666ZM149.394 40.5973C149.394 41.5639 149.286 42.262 149.072 42.799C148.91 43.2286 148.588 43.4971 148.212 43.6582C147.729 43.873 146.977 43.9804 146.011 43.9804H141.929V33.0256H146.011C146.977 33.0256 147.675 33.133 148.212 33.3478C148.642 33.5089 148.91 33.8311 149.072 34.207C149.286 34.6903 149.394 35.4421 149.394 36.4087V40.5973Z" fill="white"/>
<path d="M165.45 30.6091C165.128 29.8036 164.483 29.3203 163.624 29.2666H163.517C162.658 29.2666 161.96 29.7499 161.584 30.5554L155.73 45.1081C155.623 45.3766 155.569 45.6451 155.569 45.9136C155.569 46.6654 155.999 47.2561 156.804 47.5783C157.073 47.6857 157.288 47.7394 157.556 47.7394C158.308 47.7394 158.899 47.3098 159.221 46.558L160.295 43.8193H166.9L168.028 46.558C168.35 47.3098 168.941 47.7394 169.639 47.7394C169.961 47.7394 170.229 47.6857 170.444 47.5783C171.196 47.2561 171.626 46.6654 171.626 45.9673C171.626 45.6451 171.572 45.3766 171.464 45.1618L165.45 30.6091ZM165.343 40.0603H161.745L163.517 35.6032L165.343 40.0603Z" fill="white"/>
<path d="M182.473 29.2666H176.673C175.975 29.2666 175.546 29.5351 175.331 29.8036C175.116 30.0184 174.794 30.448 174.794 31.1461V45.8599C174.794 46.558 175.062 46.9876 175.331 47.2024C175.546 47.4172 175.975 47.7394 176.673 47.7394C177.371 47.7394 177.801 47.4709 178.016 47.2024C178.231 46.9876 178.553 46.558 178.553 45.8599V41.0269H180.701L184.299 47.0413C184.782 47.7931 185.426 47.9542 185.856 47.9542C186.178 47.9542 186.5 47.8468 186.823 47.632C187.413 47.2561 187.789 46.7191 187.789 46.0747C187.789 45.6988 187.682 45.3766 187.521 45.1081L184.836 40.651C185.641 40.3288 186.339 39.8455 186.876 39.1474C187.574 38.2345 187.95 36.9994 187.95 35.4958V34.744C187.95 33.0256 187.467 31.6294 186.5 30.6628C185.534 29.7499 184.191 29.2666 182.473 29.2666ZM184.245 35.5495C184.245 36.2476 184.138 36.7309 183.869 36.9457C183.654 37.1605 183.117 37.3216 182.473 37.3216H178.553V33.0256H182.473C183.171 33.0256 183.654 33.133 183.869 33.4015C184.084 33.6163 184.245 34.1533 184.245 34.7977V35.5495Z" fill="white"/>
<path d="M202.718 29.2666H191.011C189.884 29.2666 189.132 29.9647 189.132 31.1461C189.132 32.2738 189.83 33.0256 191.011 33.0256H194.985V45.8599C194.985 46.9876 195.683 47.7394 196.865 47.7394C197.563 47.7394 197.992 47.4709 198.207 47.2024C198.422 46.9876 198.744 46.558 198.744 45.8599V33.0256H202.718C203.846 33.0256 204.597 32.3275 204.597 31.1461C204.597 30.0184 203.899 29.2666 202.718 29.2666Z" fill="white"/>
<path d="M113.361 8.05502C112.609 8.05502 111.857 8.16242 111.105 8.37722L108.367 1.8258H112.77V0H107.024C106.702 0 106.434 0.1611 106.272 0.375901C106.111 0.644401 106.058 0.966602 106.165 1.2351L107.508 4.40341H97.4656L96.2305 1.8258C96.0694 1.5036 95.7472 1.2888 95.425 1.2888H92.3641V3.11461H94.888L95.6935 4.83301L95.6398 4.88671L93.9751 8.48462C93.1159 8.16242 92.203 8.00132 91.2901 8.00132C86.8867 8.00132 83.2351 11.5992 83.2351 16.0563C83.2351 20.5134 86.833 24.1113 91.2901 24.1113C95.3176 24.1113 98.647 21.1041 99.2377 17.2377H99.8821C100.204 18.3654 101.225 19.2246 102.46 19.2246C103.963 19.2246 105.145 17.9895 105.145 16.5396C105.145 16.2174 105.091 15.9489 104.984 15.6267L105.467 14.5527C105.36 15.036 105.306 15.5193 105.306 16.0563C105.306 20.4597 108.904 24.1113 113.361 24.1113C117.764 24.1113 121.416 20.5134 121.416 16.0563C121.416 11.5992 117.764 8.05502 113.361 8.05502ZM91.2364 22.2855C87.7996 22.2855 85.0072 19.4931 85.0072 16.0563C85.0072 12.6195 87.7996 9.82712 91.2364 9.82712C91.9345 9.82712 92.5789 9.93452 93.1696 10.1493L91.0216 14.6601C90.2698 14.7675 89.7328 15.3582 89.7328 16.1637C89.7328 16.9692 90.3772 17.6673 91.2364 17.6673C91.6123 17.6673 91.9882 17.5062 92.2567 17.2914H97.3582C96.8212 20.1375 94.2973 22.2855 91.2364 22.2855ZM92.6863 15.4656L94.7806 10.9548C96.2305 11.9751 97.2508 13.5861 97.4656 15.4656H92.6863ZM102.406 17.4525C101.923 17.4525 101.493 17.0229 101.493 16.5396C101.493 16.0563 101.923 15.6267 102.406 15.6267C102.889 15.6267 103.319 16.0563 103.319 16.5396C103.319 17.0229 102.943 17.4525 102.406 17.4525ZM103.695 14.1768C103.319 13.962 102.889 13.8546 102.46 13.8546C101.332 13.8546 100.419 14.499 99.9895 15.4656H99.2914C99.0766 12.888 97.6804 10.6326 95.5861 9.34382L96.7138 6.98101L99.8284 13.5324L101.439 12.7806L98.3248 6.28291H107.4L103.695 14.1768ZM108.796 7.51801L109.441 9.07532C108.582 9.55862 107.776 10.203 107.185 10.9548L108.796 7.51801ZM113.361 22.2855C109.924 22.2855 107.132 19.4931 107.132 16.0563C107.132 13.8009 108.367 11.814 110.139 10.74L112.072 15.3045C111.965 15.5193 111.857 15.7878 111.857 16.0563C111.857 16.8618 112.502 17.5599 113.361 17.5599C114.166 17.5599 114.864 16.9155 114.864 16.0563C114.864 15.3582 114.381 14.7675 113.737 14.6064L111.804 10.0419C112.287 9.93452 112.824 9.82712 113.361 9.82712C116.798 9.82712 119.59 12.6195 119.59 16.0563C119.59 19.4931 116.798 22.2855 113.361 22.2855Z" fill="#FFCC01"/>
<path d="M104.447 19.8691H101.386V21.6949H104.447V19.8691Z" fill="#FFCC01"/>
<path d="M21.856 24.1111V15.1968H74.321V13.0488H19.708V24.1111H21.856Z" fill="#FFCC01"/>
<path d="M182.849 24.1111H184.997V13.0488H130.276V15.1968H182.849V24.1111Z" fill="#FFCC01"/>
<path d="M182.849 52.894V73.0853H21.856V52.894H19.708V75.2333H184.997V52.894H182.849Z" fill="#FFCC01"/>
<path d="M38.8252 55.5253C38.8252 55.3642 38.8789 55.2568 38.9863 55.1494C39.0937 55.042 39.2011 54.9883 39.3622 54.9883C39.5233 54.9883 39.6844 55.042 39.7381 55.1494C39.8455 55.2568 39.8992 55.3642 39.8992 55.5253C39.8992 55.6864 39.8455 55.7938 39.7381 55.9012C39.6307 56.0086 39.5233 56.0623 39.3622 56.0623C39.2011 56.0623 39.04 56.0086 38.9863 55.9012C38.9326 55.7938 38.8252 55.6864 38.8252 55.5253ZM39.7381 64.708H38.9326V57.5659H39.7381V64.708Z" fill="#888888"/>
<path d="M48.7061 64.7085H47.9006V61.4328H44.0879V64.7085H43.2823V57.5664H44.0879V60.7347H47.9006V57.5664H48.7061V64.7085Z" fill="#888888"/>
<path d="M57.2443 58.2645H54.6667V64.7085H53.8612V58.2645H51.391V57.5664H57.2443V58.2645Z" fill="#888888"/>
<path d="M62.1311 64.8159C61.5404 64.8159 61.0034 64.6548 60.4664 64.3863C59.9831 64.0641 59.6072 63.6882 59.3387 63.1512C59.0702 62.6142 58.9091 62.0235 58.9091 61.3791V61.1106C58.9091 60.4125 59.0165 59.8218 59.285 59.2848C59.5535 58.7478 59.9294 58.3182 60.4127 57.996C60.896 57.6738 61.3793 57.5127 61.97 57.5127C62.8292 57.5127 63.5273 57.7812 64.0106 58.3719C64.4939 58.9626 64.7624 59.7681 64.7624 60.7884V61.218H59.6609V61.3791C59.6609 62.1846 59.8757 62.8827 60.359 63.4197C60.8423 63.9567 61.3793 64.2252 62.1311 64.2252C62.5607 64.2252 62.9366 64.1715 63.2588 64.0104C63.581 63.8493 63.8495 63.6345 64.118 63.2586L64.6013 63.6345C64.0643 64.44 63.2588 64.8159 62.1311 64.8159ZM61.97 58.1034C61.3793 58.1034 60.896 58.3182 60.4664 58.7478C60.0368 59.1774 59.822 59.7681 59.7146 60.5199H64.0106V60.4125C64.0106 59.7144 63.7958 59.1774 63.4199 58.7478C63.0977 58.3182 62.6144 58.1034 61.97 58.1034Z" fill="#888888"/>
<path d="M73.408 61.218C73.408 62.3457 73.1395 63.2049 72.6562 63.8493C72.1729 64.4937 71.5285 64.8159 70.6693 64.8159C69.7027 64.8159 68.9509 64.4937 68.4139 63.7956V67.4472H67.6621V57.5664H68.4139L68.4676 58.5867C69.0046 57.8349 69.7027 57.459 70.723 57.459C71.5822 57.459 72.2266 57.7812 72.7099 58.4256C73.1932 59.07 73.4617 59.9829 73.4617 61.1106V61.218H73.408ZM72.6562 61.0569C72.6562 60.144 72.4951 59.4459 72.1192 58.9089C71.7433 58.3719 71.2063 58.1034 70.5619 58.1034C70.0786 58.1034 69.649 58.2108 69.3268 58.4793C69.0046 58.6941 68.7361 59.07 68.5213 59.4996V62.9364C68.7361 63.366 69.0046 63.6345 69.3268 63.8493C69.649 64.0641 70.0786 64.1715 70.5619 64.1715C71.2063 64.1715 71.7433 63.903 72.1192 63.366C72.4414 62.829 72.6562 62.0772 72.6562 61.0569Z" fill="#888888"/>
<path d="M82.0001 64.7085H81.1946V61.4328H77.3819V64.7085H76.5764V57.5664H77.3819V60.7347H81.1946V57.5664H82.0001V64.7085Z" fill="#888888"/>
<path d="M88.1756 64.8159C87.5849 64.8159 87.0479 64.6548 86.5109 64.3863C86.0276 64.0641 85.6517 63.6882 85.3832 63.1512C85.1147 62.6142 84.9536 62.0235 84.9536 61.3791V61.1106C84.9536 60.4125 85.061 59.8218 85.3295 59.2848C85.598 58.7478 85.9739 58.3182 86.4572 57.996C86.9405 57.6738 87.4238 57.5127 88.0145 57.5127C88.8737 57.5127 89.5718 57.7812 90.0551 58.3719C90.5384 58.9626 90.8069 59.7681 90.8069 60.7884V61.218H85.7054V61.3791C85.7054 62.1846 85.9202 62.8827 86.4035 63.4197C86.8868 63.9567 87.4238 64.2252 88.1756 64.2252C88.6052 64.2252 88.9811 64.1715 89.3033 64.0104C89.6255 63.8493 89.894 63.6345 90.1625 63.2586L90.6458 63.6345C90.1625 64.44 89.3033 64.8159 88.1756 64.8159ZM88.0682 58.1034C87.4775 58.1034 86.9942 58.3182 86.5646 58.7478C86.135 59.1774 85.9202 59.7681 85.8128 60.5199H90.1088V60.4125C90.1088 59.7144 89.894 59.1774 89.5181 58.7478C89.1422 58.3182 88.6589 58.1034 88.0682 58.1034Z" fill="#888888"/>
<path d="M98.8083 58.2645H96.2307V64.7085H95.4251V58.2645H92.9012V57.5664H98.8083V58.2645Z" fill="#888888"/>
<path d="M103.856 60.7884H100.688V60.144H103.856V60.7884Z" fill="#888888"/>
<path d="M110.569 63.6345L113.415 57.5664H114.381V64.7085H113.576V58.8552L110.837 64.7085H110.3L107.508 58.7478V64.7085H106.702V57.5664H107.722L110.569 63.6345Z" fill="#888888"/>
<path d="M122.329 64.7085C122.275 64.4937 122.221 64.1715 122.168 63.6882C121.899 64.0641 121.523 64.3326 121.094 64.4937C120.664 64.7085 120.235 64.7622 119.751 64.7622C119.053 64.7622 118.516 64.5474 118.087 64.1715C117.657 63.7956 117.442 63.3123 117.442 62.7216C117.442 62.0235 117.711 61.4865 118.301 61.0569C118.892 60.6273 119.698 60.4662 120.718 60.4662H122.168V59.6607C122.168 59.1774 122.007 58.7478 121.684 58.4793C121.362 58.2108 120.933 58.0497 120.288 58.0497C119.751 58.0497 119.268 58.2108 118.946 58.4793C118.57 58.7478 118.409 59.1237 118.409 59.4996H117.603C117.603 58.9089 117.872 58.4256 118.409 58.0497C118.946 57.6738 119.59 57.4053 120.342 57.4053C121.147 57.4053 121.738 57.6201 122.221 57.996C122.705 58.3719 122.92 58.9626 122.92 59.6607V63.0438C122.92 63.7419 122.973 64.2252 123.134 64.6011V64.6548H122.329V64.7085ZM119.859 64.1178C120.396 64.1178 120.879 64.0104 121.255 63.7419C121.684 63.4734 121.953 63.1512 122.168 62.7216V61.1643H120.772C119.966 61.1643 119.375 61.3254 118.946 61.5939C118.516 61.8624 118.301 62.2383 118.301 62.7216C118.301 63.0975 118.462 63.4734 118.731 63.7419C118.999 64.0104 119.375 64.1178 119.859 64.1178Z" fill="#888888"/>
<path d="M130.867 58.2645H127.269V64.7085H126.464V57.5664H130.867V58.2645Z" fill="#888888"/>
<path d="M137.956 64.7085C137.902 64.4937 137.848 64.1715 137.794 63.6882C137.526 64.0641 137.15 64.3326 136.72 64.4937C136.291 64.7085 135.861 64.7622 135.378 64.7622C134.68 64.7622 134.143 64.5474 133.713 64.1715C133.284 63.7956 133.069 63.3123 133.069 62.7216C133.069 62.0235 133.337 61.4865 133.928 61.0569C134.519 60.6273 135.324 60.4662 136.345 60.4662H137.794V59.6607C137.794 59.1774 137.633 58.7478 137.311 58.4793C136.989 58.2108 136.559 58.0497 135.915 58.0497C135.378 58.0497 134.895 58.2108 134.572 58.4793C134.197 58.7478 134.035 59.1237 134.035 59.4996H133.23C133.23 58.9089 133.498 58.4256 134.035 58.0497C134.572 57.6738 135.217 57.4053 135.969 57.4053C136.774 57.4053 137.365 57.6201 137.848 57.996C138.331 58.3719 138.546 58.9626 138.546 59.6607V63.0438C138.546 63.7419 138.6 64.2252 138.761 64.6011V64.6548H137.956V64.7085ZM135.485 64.1178C136.022 64.1178 136.506 64.0104 136.882 63.7419C137.311 63.4734 137.58 63.1512 137.794 62.7216V61.1643H136.398C135.593 61.1643 135.002 61.3254 134.572 61.5939C134.143 61.8624 133.928 62.2383 133.928 62.7216C133.928 63.0975 134.089 63.4734 134.358 63.7419C134.626 64.0104 135.002 64.1178 135.485 64.1178Z" fill="#888888"/>
<path d="M146.172 59.4459C146.172 59.0163 146.011 58.6941 145.688 58.4256C145.366 58.2108 144.937 58.1034 144.346 58.1034C143.863 58.1034 143.379 58.2108 143.057 58.4793C142.681 58.7478 142.52 59.07 142.52 59.4459H141.768C141.768 58.8552 142.037 58.3719 142.52 57.996C143.003 57.6201 143.648 57.4053 144.4 57.4053C145.205 57.4053 145.849 57.5664 146.333 57.9423C146.762 58.3182 147.031 58.8015 147.031 59.4459C147.031 59.7681 146.923 60.0903 146.709 60.3588C146.494 60.6273 146.172 60.8421 145.796 61.0032C146.709 61.2717 147.138 61.8087 147.138 62.7216C147.138 63.366 146.87 63.8493 146.386 64.2252C145.903 64.6011 145.259 64.7622 144.4 64.7622C143.594 64.7622 142.95 64.5474 142.413 64.1715C141.876 63.7956 141.607 63.2586 141.607 62.6142H142.413C142.413 63.0438 142.627 63.4197 143.003 63.6882C143.379 63.9567 143.863 64.1178 144.4 64.1178C144.99 64.1178 145.474 64.0104 145.796 63.7419C146.118 63.4734 146.333 63.1512 146.333 62.7216C146.333 62.2383 146.172 61.9161 145.849 61.7013C145.527 61.4865 145.044 61.3791 144.4 61.3791H143.326V60.681H144.561C145.635 60.681 146.172 60.3051 146.172 59.4459Z" fill="#888888"/>
<path d="M154.871 57.5664H155.677V64.7085H154.871V58.8552L151.005 64.7085H150.199V57.5664H151.005V63.4197L154.871 57.5664Z" fill="#888888"/>
<path d="M164.591 64.7085H163.785V61.4328H159.973V64.7085H159.167V57.5664H159.973V60.7347H163.785V57.5664H164.591V64.7085Z" fill="#888888"/>
<path d="M16.3492 110V99.8182H19.9088C20.6181 99.8182 21.2031 99.9408 21.6638 100.186C22.1245 100.428 22.4675 100.754 22.6929 101.165C22.9183 101.573 23.031 102.026 23.031 102.523C23.031 102.96 22.9531 103.321 22.7973 103.607C22.6449 103.892 22.4427 104.117 22.1908 104.283C21.9422 104.448 21.6721 104.571 21.3804 104.651V104.75C21.692 104.77 22.0052 104.879 22.32 105.078C22.6349 105.277 22.8984 105.562 23.1105 105.933C23.3227 106.304 23.4287 106.759 23.4287 107.295C23.4287 107.806 23.3127 108.265 23.0807 108.673C22.8487 109.08 22.4825 109.403 21.982 109.642C21.4815 109.881 20.8302 110 20.0281 110H16.3492ZM17.5821 108.906H20.0281C20.8335 108.906 21.4053 108.75 21.7433 108.439C22.0847 108.124 22.2554 107.743 22.2554 107.295C22.2554 106.951 22.1676 106.633 21.9919 106.341C21.8163 106.046 21.566 105.811 21.2412 105.635C20.9164 105.456 20.5319 105.366 20.0878 105.366H17.5821V108.906ZM17.5821 104.293H19.8691C20.2403 104.293 20.575 104.22 20.8733 104.074C21.1749 103.928 21.4136 103.723 21.5892 103.457C21.7682 103.192 21.8577 102.881 21.8577 102.523C21.8577 102.075 21.7019 101.696 21.3904 101.384C21.0788 101.069 20.585 100.912 19.9088 100.912H17.5821V104.293ZM25.4546 110V99.8182H31.5995V100.912H26.6876V104.352H31.2813V105.446H26.6876V108.906H31.6791V110H25.4546ZM32.9468 110V108.866H33.2451C33.6694 108.866 33.9991 108.731 34.2345 108.459C34.4698 108.187 34.6388 107.748 34.7416 107.141C34.8476 106.535 34.9189 105.731 34.9553 104.73L35.1343 99.8182H41.3389V110H40.1059V100.912H36.3076L36.1485 104.969C36.1088 106.036 36.011 106.944 35.8552 107.693C35.6994 108.442 35.426 109.014 35.0349 109.408C34.6438 109.803 34.0737 110 33.3247 110H32.9468ZM52.3932 104.909C52.3932 105.983 52.1993 106.911 51.8115 107.693C51.4237 108.475 50.8918 109.079 50.2156 109.503C49.5395 109.927 48.7673 110.139 47.8989 110.139C47.0305 110.139 46.2583 109.927 45.5821 109.503C44.906 109.079 44.374 108.475 43.9862 107.693C43.5985 106.911 43.4046 105.983 43.4046 104.909C43.4046 103.835 43.5985 102.907 43.9862 102.125C44.374 101.343 44.906 100.74 45.5821 100.315C46.2583 99.8911 47.0305 99.679 47.8989 99.679C48.7673 99.679 49.5395 99.8911 50.2156 100.315C50.8918 100.74 51.4237 101.343 51.8115 102.125C52.1993 102.907 52.3932 103.835 52.3932 104.909ZM51.2 104.909C51.2 104.027 51.0525 103.283 50.7575 102.677C50.4659 102.07 50.0698 101.611 49.5693 101.3C49.0722 100.988 48.5154 100.832 47.8989 100.832C47.2824 100.832 46.7239 100.988 46.2235 101.3C45.7263 101.611 45.3302 102.07 45.0352 102.677C44.7436 103.283 44.5977 104.027 44.5977 104.909C44.5977 105.791 44.7436 106.535 45.0352 107.141C45.3302 107.748 45.7263 108.207 46.2235 108.518C46.7239 108.83 47.2824 108.986 47.8989 108.986C48.5154 108.986 49.0722 108.83 49.5693 108.518C50.0698 108.207 50.4659 107.748 50.7575 107.141C51.0525 106.535 51.2 105.791 51.2 104.909ZM62.6595 103H61.4266C61.3537 102.645 61.2261 102.334 61.0438 102.065C60.8648 101.797 60.646 101.571 60.3875 101.389C60.1323 101.204 59.8489 101.064 59.5374 100.972C59.2258 100.879 58.901 100.832 58.5629 100.832C57.9465 100.832 57.388 100.988 56.8875 101.3C56.3904 101.611 55.9943 102.07 55.6993 102.677C55.4076 103.283 55.2618 104.027 55.2618 104.909C55.2618 105.791 55.4076 106.535 55.6993 107.141C55.9943 107.748 56.3904 108.207 56.8875 108.518C57.388 108.83 57.9465 108.986 58.5629 108.986C58.901 108.986 59.2258 108.939 59.5374 108.847C59.8489 108.754 60.1323 108.616 60.3875 108.434C60.646 108.248 60.8648 108.021 61.0438 107.753C61.2261 107.481 61.3537 107.17 61.4266 106.818H62.6595C62.5667 107.339 62.3977 107.804 62.1524 108.215C61.9072 108.626 61.6022 108.976 61.2377 109.264C60.8731 109.549 60.4637 109.766 60.0097 109.915C59.5589 110.065 59.0767 110.139 58.5629 110.139C57.6946 110.139 56.9223 109.927 56.2462 109.503C55.57 109.079 55.0381 108.475 54.6503 107.693C54.2625 106.911 54.0686 105.983 54.0686 104.909C54.0686 103.835 54.2625 102.907 54.6503 102.125C55.0381 101.343 55.57 100.74 56.2462 100.315C56.9223 99.8911 57.6946 99.679 58.5629 99.679C59.0767 99.679 59.5589 99.7536 60.0097 99.9027C60.4637 100.052 60.8731 100.271 61.2377 100.559C61.6022 100.844 61.9072 101.192 62.1524 101.603C62.3977 102.011 62.5667 102.476 62.6595 103ZM64.6519 99.8182H65.865V107.832H65.9644L71.5326 99.8182H72.7258V110H71.4928V102.006H71.3934L65.8451 110H64.6519V99.8182ZM82.8094 99.8182V110H81.5764V100.912H76.4458V110H75.2128V99.8182H82.8094ZM85.2964 110V99.8182H91.4413V100.912H86.5294V104.352H91.1231V105.446H86.5294V108.906H91.5209V110H85.2964ZM92.7886 112.466V108.906H93.4449C93.6702 108.701 93.8824 108.411 94.0812 108.036C94.2834 107.658 94.4541 107.155 94.5933 106.525C94.7358 105.892 94.8303 105.088 94.8767 104.114L95.0954 99.8182H101.141V108.906H102.314V112.446H101.141V110H93.9619V112.466H92.7886ZM94.9165 108.906H99.9676V100.912H96.2091L96.05 104.114C96.0102 104.856 95.9406 105.529 95.8412 106.132C95.7417 106.732 95.6141 107.264 95.4584 107.728C95.3026 108.189 95.122 108.581 94.9165 108.906ZM105.092 104.094H107.995C108.725 104.094 109.339 104.213 109.84 104.452C110.344 104.69 110.725 105.027 110.983 105.461C111.245 105.895 111.376 106.407 111.376 106.997C111.376 107.587 111.245 108.107 110.983 108.558C110.725 109.009 110.344 109.362 109.84 109.617C109.339 109.872 108.725 110 107.995 110H104.177V99.8182H105.41V108.926H107.995C108.459 108.926 108.852 108.833 109.174 108.648C109.499 108.459 109.744 108.217 109.91 107.922C110.079 107.624 110.163 107.309 110.163 106.977C110.163 106.49 109.976 106.071 109.601 105.719C109.227 105.365 108.691 105.188 107.995 105.188H105.092V104.094ZM113.603 99.8182V110H112.37V99.8182H113.603ZM117.663 108.608L117.583 109.145C117.527 109.523 117.441 109.927 117.325 110.358C117.212 110.789 117.094 111.195 116.972 111.576C116.849 111.957 116.748 112.26 116.668 112.486H115.774C115.817 112.274 115.873 111.994 115.943 111.646C116.012 111.298 116.082 110.908 116.151 110.477C116.224 110.05 116.284 109.612 116.33 109.165L116.39 108.608H117.663ZM129.919 110L126.419 105.327H125.166V110H123.933V99.8182H125.166V104.233H125.703L129.78 99.8182H131.251L127.135 104.293L131.391 110H129.919ZM141.096 104.909C141.096 105.983 140.902 106.911 140.515 107.693C140.127 108.475 139.595 109.079 138.919 109.503C138.243 109.927 137.47 110.139 136.602 110.139C135.734 110.139 134.961 109.927 134.285 109.503C133.609 109.079 133.077 108.475 132.689 107.693C132.302 106.911 132.108 105.983 132.108 104.909C132.108 103.835 132.302 102.907 132.689 102.125C133.077 101.343 133.609 100.74 134.285 100.315C134.961 99.8911 135.734 99.679 136.602 99.679C137.47 99.679 138.243 99.8911 138.919 100.315C139.595 100.74 140.127 101.343 140.515 102.125C140.902 102.907 141.096 103.835 141.096 104.909ZM139.903 104.909C139.903 104.027 139.756 103.283 139.461 102.677C139.169 102.07 138.773 101.611 138.272 101.3C137.775 100.988 137.218 100.832 136.602 100.832C135.986 100.832 135.427 100.988 134.927 101.3C134.429 101.611 134.033 102.07 133.738 102.677C133.447 103.283 133.301 104.027 133.301 104.909C133.301 105.791 133.447 106.535 133.738 107.141C134.033 107.748 134.429 108.207 134.927 108.518C135.427 108.83 135.986 108.986 136.602 108.986C137.218 108.986 137.775 108.83 138.272 108.518C138.773 108.207 139.169 107.748 139.461 107.141C139.756 106.535 139.903 105.791 139.903 104.909ZM142.189 100.912V99.8182H149.825V100.912H146.623V110H145.391V100.912H142.189ZM159.895 104.909C159.895 105.983 159.701 106.911 159.313 107.693C158.926 108.475 158.394 109.079 157.718 109.503C157.041 109.927 156.269 110.139 155.401 110.139C154.532 110.139 153.76 109.927 153.084 109.503C152.408 109.079 151.876 108.475 151.488 107.693C151.1 106.911 150.907 105.983 150.907 104.909C150.907 103.835 151.1 102.907 151.488 102.125C151.876 101.343 152.408 100.74 153.084 100.315C153.76 99.8911 154.532 99.679 155.401 99.679C156.269 99.679 157.041 99.8911 157.718 100.315C158.394 100.74 158.926 101.343 159.313 102.125C159.701 102.907 159.895 103.835 159.895 104.909ZM158.702 104.909C158.702 104.027 158.554 103.283 158.259 102.677C157.968 102.07 157.572 101.611 157.071 101.3C156.574 100.988 156.017 100.832 155.401 100.832C154.784 100.832 154.226 100.988 153.725 101.3C153.228 101.611 152.832 102.07 152.537 102.677C152.246 103.283 152.1 104.027 152.1 104.909C152.1 105.791 152.246 106.535 152.537 107.141C152.832 107.748 153.228 108.207 153.725 108.518C154.226 108.83 154.784 108.986 155.401 108.986C156.017 108.986 156.574 108.83 157.071 108.518C157.572 108.207 157.968 107.748 158.259 107.141C158.554 106.535 158.702 105.791 158.702 104.909ZM161.968 110V99.8182H165.409C166.207 99.8182 166.86 99.9624 167.367 100.251C167.878 100.536 168.256 100.922 168.501 101.409C168.746 101.896 168.869 102.44 168.869 103.04C168.869 103.64 168.746 104.185 168.501 104.675C168.259 105.166 167.884 105.557 167.377 105.849C166.87 106.137 166.221 106.281 165.429 106.281H162.963V105.188H165.389C165.936 105.188 166.375 105.093 166.706 104.904C167.038 104.715 167.278 104.46 167.427 104.138C167.58 103.814 167.656 103.447 167.656 103.04C167.656 102.632 167.58 102.268 167.427 101.946C167.278 101.625 167.036 101.373 166.701 101.19C166.367 101.005 165.922 100.912 165.369 100.912H163.201V110H161.968ZM171.77 104.094H174.673C175.402 104.094 176.017 104.213 176.518 104.452C177.021 104.69 177.403 105.027 177.661 105.461C177.923 105.895 178.054 106.407 178.054 106.997C178.054 107.587 177.923 108.107 177.661 108.558C177.403 109.009 177.021 109.362 176.518 109.617C176.017 109.872 175.402 110 174.673 110H170.855V99.8182H172.088V108.926H174.673C175.137 108.926 175.53 108.833 175.851 108.648C176.176 108.459 176.422 108.217 176.587 107.922C176.756 107.624 176.841 107.309 176.841 106.977C176.841 106.49 176.654 106.071 176.279 105.719C175.905 105.365 175.369 105.188 174.673 105.188H171.77V104.094ZM180.281 99.8182V110H179.048V99.8182H180.281ZM182.75 110V99.8182H188.894V100.912H183.983V104.352H188.576V105.446H183.983V108.906H188.974V110H182.75ZM44.3423 129.466V125.906H44.9986C45.224 125.701 45.4361 125.411 45.6349 125.036C45.8371 124.658 46.0078 124.155 46.147 123.525C46.2895 122.892 46.384 122.088 46.4304 121.114L46.6491 116.818H52.6946V125.906H53.8679V129.446H52.6946V127H45.5156V129.466H44.3423ZM46.4702 125.906H51.5213V117.912H47.7628L47.6037 121.114C47.5639 121.856 47.4943 122.529 47.3949 123.132C47.2955 123.732 47.1679 124.264 47.0121 124.728C46.8563 125.189 46.6757 125.581 46.4702 125.906ZM56.1486 127H54.856L58.5946 116.818H59.8674L63.606 127H62.3134L59.2708 118.429H59.1912L56.1486 127ZM56.6259 123.023H61.8361V124.116H56.6259V123.023ZM65.1919 127V116.818H68.6323C69.431 116.818 70.084 116.962 70.5911 117.251C71.1015 117.536 71.4793 117.922 71.7246 118.409C71.9699 118.896 72.0925 119.44 72.0925 120.04C72.0925 120.64 71.9699 121.185 71.7246 121.675C71.4827 122.166 71.1081 122.557 70.601 122.849C70.0939 123.137 69.4443 123.281 68.6522 123.281H66.1863V122.188H68.6124C69.1593 122.188 69.5984 122.093 69.9299 121.904C70.2613 121.715 70.5016 121.46 70.6507 121.138C70.8032 120.814 70.8794 120.447 70.8794 120.04C70.8794 119.632 70.8032 119.268 70.6507 118.946C70.5016 118.625 70.2596 118.373 69.9249 118.19C69.5901 118.005 69.146 117.912 68.5925 117.912H66.4249V127H65.1919ZM80.9991 127H79.7662V117.912H77.5985C77.0484 117.912 76.6059 117.996 76.2711 118.165C75.9364 118.331 75.6928 118.567 75.5403 118.871C75.3878 119.176 75.3116 119.533 75.3116 119.94C75.3116 120.348 75.3862 120.699 75.5353 120.994C75.6878 121.286 75.9297 121.511 76.2612 121.67C76.5959 121.83 77.0351 121.909 77.5787 121.909H80.323V123.023H77.5389C76.7501 123.023 76.1021 122.892 75.595 122.63C75.0879 122.365 74.7117 122 74.4664 121.536C74.2212 121.072 74.0985 120.54 74.0985 119.94C74.0985 119.34 74.2212 118.805 74.4664 118.335C74.7117 117.864 75.0895 117.494 75.6 117.226C76.1104 116.954 76.7633 116.818 77.5588 116.818H80.9991V127ZM76.2065 122.426H77.5985L75.1326 127H73.7008L76.2065 122.426ZM82.9144 117.912V116.818H90.5508V117.912H87.3491V127H86.1161V117.912H82.9144ZM104.584 120H103.351C103.278 119.645 103.151 119.334 102.969 119.065C102.79 118.797 102.571 118.571 102.312 118.389C102.057 118.204 101.774 118.064 101.462 117.972C101.151 117.879 100.826 117.832 100.488 117.832C99.8713 117.832 99.3128 117.988 98.8123 118.3C98.3152 118.611 97.9191 119.07 97.6241 119.677C97.3324 120.283 97.1866 121.027 97.1866 121.909C97.1866 122.791 97.3324 123.535 97.6241 124.141C97.9191 124.748 98.3152 125.207 98.8123 125.518C99.3128 125.83 99.8713 125.986 100.488 125.986C100.826 125.986 101.151 125.939 101.462 125.847C101.774 125.754 102.057 125.616 102.312 125.434C102.571 125.248 102.79 125.021 102.969 124.753C103.151 124.481 103.278 124.17 103.351 123.818H104.584C104.492 124.339 104.323 124.804 104.077 125.215C103.832 125.626 103.527 125.976 103.162 126.264C102.798 126.549 102.389 126.766 101.934 126.915C101.484 127.065 101.001 127.139 100.488 127.139C99.6194 127.139 98.8471 126.927 98.171 126.503C97.4949 126.079 96.9629 125.475 96.5751 124.693C96.1873 123.911 95.9934 122.983 95.9934 121.909C95.9934 120.835 96.1873 119.907 96.5751 119.125C96.9629 118.343 97.4949 117.74 98.171 117.315C98.8471 116.891 99.6194 116.679 100.488 116.679C101.001 116.679 101.484 116.754 101.934 116.903C102.389 117.052 102.798 117.271 103.162 117.559C103.527 117.844 103.832 118.192 104.077 118.603C104.323 119.011 104.492 119.476 104.584 120ZM106.676 116.818H107.909V120.219C107.909 120.723 107.997 121.119 108.173 121.407C108.348 121.692 108.597 121.894 108.918 122.013C109.24 122.129 109.619 122.188 110.057 122.188C110.332 122.188 110.599 122.178 110.857 122.158C111.116 122.134 111.368 122.103 111.613 122.063C111.862 122.023 112.103 121.975 112.339 121.919C112.577 121.863 112.811 121.8 113.04 121.73V122.844C112.818 122.913 112.597 122.976 112.379 123.033C112.163 123.089 111.938 123.137 111.702 123.177C111.47 123.217 111.22 123.248 110.952 123.271C110.683 123.291 110.385 123.301 110.057 123.301C109.354 123.301 108.749 123.2 108.242 122.998C107.738 122.796 107.351 122.469 107.079 122.018C106.81 121.568 106.676 120.968 106.676 120.219V116.818ZM112.881 116.818H114.114V127H112.881V116.818ZM117.002 127H115.71L119.448 116.818H120.721L124.46 127H123.167L120.124 118.429H120.045L117.002 127ZM117.479 123.023H122.69V124.116H117.479V123.023ZM133.76 120H132.527C132.454 119.645 132.327 119.334 132.144 119.065C131.965 118.797 131.747 118.571 131.488 118.389C131.233 118.204 130.95 118.064 130.638 117.972C130.326 117.879 130.002 117.832 129.664 117.832C129.047 117.832 128.489 117.988 127.988 118.3C127.491 118.611 127.095 119.07 126.8 119.677C126.508 120.283 126.362 121.027 126.362 121.909C126.362 122.791 126.508 123.535 126.8 124.141C127.095 124.748 127.491 125.207 127.988 125.518C128.489 125.83 129.047 125.986 129.664 125.986C130.002 125.986 130.326 125.939 130.638 125.847C130.95 125.754 131.233 125.616 131.488 125.434C131.747 125.248 131.965 125.021 132.144 124.753C132.327 124.481 132.454 124.17 132.527 123.818H133.76C133.667 124.339 133.498 124.804 133.253 125.215C133.008 125.626 132.703 125.976 132.338 126.264C131.974 126.549 131.564 126.766 131.11 126.915C130.66 127.065 130.177 127.139 129.664 127.139C128.795 127.139 128.023 126.927 127.347 126.503C126.671 126.079 126.139 125.475 125.751 124.693C125.363 123.911 125.169 122.983 125.169 121.909C125.169 120.835 125.363 119.907 125.751 119.125C126.139 118.343 126.671 117.74 127.347 117.315C128.023 116.891 128.795 116.679 129.664 116.679C130.177 116.679 130.66 116.754 131.11 116.903C131.564 117.052 131.974 117.271 132.338 117.559C132.703 117.844 133.008 118.192 133.253 118.603C133.498 119.011 133.667 119.476 133.76 120ZM135.196 117.912V116.818H142.832V117.912H139.63V127H138.397V117.912H135.196ZM145.65 121.094H148.553C149.282 121.094 149.897 121.213 150.398 121.452C150.901 121.69 151.282 122.027 151.541 122.461C151.803 122.895 151.934 123.407 151.934 123.997C151.934 124.587 151.803 125.107 151.541 125.558C151.282 126.009 150.901 126.362 150.398 126.617C149.897 126.872 149.282 127 148.553 127H144.735V116.818H145.968V125.926H148.553C149.017 125.926 149.41 125.833 149.731 125.648C150.056 125.459 150.301 125.217 150.467 124.922C150.636 124.624 150.721 124.309 150.721 123.977C150.721 123.49 150.533 123.071 150.159 122.719C149.784 122.365 149.249 122.188 148.553 122.188H145.65V121.094ZM153.881 127V116.818H160.026V117.912H155.114V121.352H159.708V122.446H155.114V125.906H160.106V127H153.881Z" fill="#D0D0D0"/>
<path d="M50.6724 179.818H52.144L55.6042 188.27H55.7235L59.1838 179.818H60.6554V190H59.502V182.264H59.4025L56.2207 190H55.1071L51.9252 182.264H51.8258V190H50.6724V179.818ZM63.9826 185.128H66.1701C67.065 185.128 67.7494 185.355 68.2234 185.809C68.6973 186.263 68.9343 186.838 68.9343 187.534C68.9343 187.991 68.8282 188.407 68.6161 188.782C68.404 189.153 68.0924 189.45 67.6815 189.672C67.2705 189.891 66.7667 190 66.1701 190H62.9684V182.364H64.1417V188.906H66.1701C66.6341 188.906 67.0153 188.784 67.3136 188.538C67.6119 188.293 67.761 187.978 67.761 187.594C67.761 187.189 67.6119 186.86 67.3136 186.604C67.0153 186.349 66.6341 186.222 66.1701 186.222H63.9826V185.128ZM70.1474 190V182.364H71.3207V190H70.1474ZM77.4059 190V182.364H80.5281C81.35 182.364 82.003 182.549 82.4869 182.92C82.9708 183.292 83.2127 183.782 83.2127 184.392C83.2127 184.856 83.0752 185.216 82.8001 185.471C82.525 185.723 82.172 185.893 81.7411 185.983C82.0228 186.023 82.2963 186.122 82.5614 186.281C82.8299 186.44 83.052 186.659 83.2276 186.938C83.4033 187.213 83.4911 187.551 83.4911 187.952C83.4911 188.343 83.3917 188.692 83.1928 189.001C82.994 189.309 82.7089 189.553 82.3377 189.732C81.9665 189.911 81.5224 190 81.0053 190H77.4059ZM78.5195 188.926H81.0053C81.4097 188.926 81.7262 188.83 81.9549 188.638C82.1836 188.446 82.2979 188.184 82.2979 187.852C82.2979 187.458 82.1836 187.148 81.9549 186.923C81.7262 186.694 81.4097 186.58 81.0053 186.58H78.5195V188.926ZM78.5195 185.565H80.5281C80.8429 185.565 81.113 185.522 81.3384 185.436C81.5638 185.347 81.7362 185.221 81.8555 185.058C81.9781 184.893 82.0394 184.697 82.0394 184.472C82.0394 184.15 81.9052 183.898 81.6367 183.716C81.3683 183.53 80.9987 183.438 80.5281 183.438H78.5195V185.565ZM92.307 190.159C91.5911 190.159 90.9746 189.99 90.4576 189.652C89.9405 189.314 89.5428 188.848 89.2644 188.255C88.986 187.662 88.8468 186.984 88.8468 186.222C88.8468 185.446 88.9893 184.762 89.2743 184.168C89.5627 183.572 89.9637 183.106 90.4775 182.771C90.9945 182.433 91.5977 182.264 92.2871 182.264C92.824 182.264 93.3079 182.364 93.7388 182.562C94.1697 182.761 94.5227 183.04 94.7978 183.398C95.0729 183.756 95.2435 184.173 95.3098 184.651H94.1365C94.0471 184.303 93.8482 183.994 93.54 183.726C93.235 183.454 92.824 183.318 92.307 183.318C91.8496 183.318 91.4486 183.437 91.1039 183.676C90.7625 183.911 90.4957 184.245 90.3034 184.675C90.1145 185.103 90.0201 185.605 90.0201 186.182C90.0201 186.772 90.1129 187.286 90.2985 187.723C90.4874 188.161 90.7525 188.5 91.0939 188.742C91.4386 188.984 91.843 189.105 92.307 189.105C92.6119 189.105 92.8887 189.052 93.1373 188.946C93.3858 188.84 93.5963 188.688 93.7686 188.489C93.941 188.29 94.0636 188.051 94.1365 187.773H95.3098C95.2435 188.223 95.0795 188.629 94.8176 188.991C94.5591 189.349 94.2161 189.634 93.7885 189.846C93.3643 190.055 92.8704 190.159 92.307 190.159ZM100.127 190.159C99.4379 190.159 98.833 189.995 98.3127 189.667C97.7956 189.339 97.3913 188.88 97.0996 188.29C96.8113 187.7 96.6671 187.01 96.6671 186.222C96.6671 185.426 96.8113 184.732 97.0996 184.138C97.3913 183.545 97.7956 183.085 98.3127 182.756C98.833 182.428 99.4379 182.264 100.127 182.264C100.817 182.264 101.42 182.428 101.937 182.756C102.457 183.085 102.862 183.545 103.15 184.138C103.442 184.732 103.588 185.426 103.588 186.222C103.588 187.01 103.442 187.7 103.15 188.29C102.862 188.88 102.457 189.339 101.937 189.667C101.42 189.995 100.817 190.159 100.127 190.159ZM100.127 189.105C100.651 189.105 101.082 188.971 101.42 188.702C101.758 188.434 102.008 188.081 102.171 187.643C102.333 187.206 102.414 186.732 102.414 186.222C102.414 185.711 102.333 185.236 102.171 184.795C102.008 184.354 101.758 183.998 101.42 183.726C101.082 183.454 100.651 183.318 100.127 183.318C99.6036 183.318 99.1728 183.454 98.8347 183.726C98.4966 183.998 98.2464 184.354 98.084 184.795C97.9216 185.236 97.8404 185.711 97.8404 186.222C97.8404 186.732 97.9216 187.206 98.084 187.643C98.2464 188.081 98.4966 188.434 98.8347 188.702C99.1728 188.971 99.6036 189.105 100.127 189.105ZM111.384 182.364V188.906H112.458V192.466H111.285V190H105.379V182.364H106.552V188.906H110.211V182.364H111.384ZM117.286 190.159C116.57 190.159 115.953 189.99 115.436 189.652C114.919 189.314 114.521 188.848 114.243 188.255C113.964 187.662 113.825 186.984 113.825 186.222C113.825 185.446 113.968 184.762 114.253 184.168C114.541 183.572 114.942 183.106 115.456 182.771C115.973 182.433 116.576 182.264 117.266 182.264C117.803 182.264 118.286 182.364 118.717 182.562C119.148 182.761 119.501 183.04 119.776 183.398C120.051 183.756 120.222 184.173 120.288 184.651H119.115C119.026 184.303 118.827 183.994 118.518 183.726C118.214 183.454 117.803 183.318 117.286 183.318C116.828 183.318 116.427 183.437 116.082 183.676C115.741 183.911 115.474 184.245 115.282 184.675C115.093 185.103 114.999 185.605 114.999 186.182C114.999 186.772 115.091 187.286 115.277 187.723C115.466 188.161 115.731 188.5 116.072 188.742C116.417 188.984 116.821 189.105 117.286 189.105C117.59 189.105 117.867 189.052 118.116 188.946C118.364 188.84 118.575 188.688 118.747 188.489C118.92 188.29 119.042 188.051 119.115 187.773H120.288C120.222 188.223 120.058 188.629 119.796 188.991C119.538 189.349 119.195 189.634 118.767 189.846C118.343 190.055 117.849 190.159 117.286 190.159ZM125.205 190.159C124.469 190.159 123.835 189.997 123.301 189.672C122.771 189.344 122.362 188.886 122.073 188.3C121.788 187.71 121.646 187.024 121.646 186.241C121.646 185.459 121.788 184.77 122.073 184.173C122.362 183.573 122.763 183.106 123.276 182.771C123.793 182.433 124.397 182.264 125.086 182.264C125.484 182.264 125.876 182.33 126.264 182.463C126.652 182.596 127.005 182.811 127.323 183.109C127.641 183.404 127.895 183.795 128.084 184.283C128.273 184.77 128.367 185.37 128.367 186.082V186.58H122.481V185.565H127.174C127.174 185.134 127.088 184.75 126.915 184.412C126.746 184.074 126.504 183.807 126.19 183.612C125.878 183.416 125.51 183.318 125.086 183.318C124.619 183.318 124.214 183.434 123.873 183.666C123.535 183.895 123.275 184.193 123.092 184.561C122.91 184.929 122.819 185.323 122.819 185.744V186.42C122.819 186.997 122.918 187.486 123.117 187.887C123.319 188.285 123.599 188.588 123.957 188.797C124.315 189.002 124.731 189.105 125.205 189.105C125.513 189.105 125.792 189.062 126.04 188.976C126.292 188.886 126.509 188.754 126.692 188.578C126.874 188.399 127.015 188.177 127.114 187.912L128.248 188.23C128.129 188.615 127.928 188.953 127.646 189.244C127.365 189.533 127.017 189.758 126.602 189.92C126.188 190.08 125.722 190.159 125.205 190.159ZM129.441 183.457V182.364H135.646V183.457H133.14V190H131.967V183.457H129.441ZM141.951 190V183.438H139.922C139.465 183.438 139.105 183.544 138.844 183.756C138.582 183.968 138.451 184.259 138.451 184.631C138.451 184.995 138.568 185.282 138.804 185.491C139.042 185.7 139.369 185.804 139.783 185.804H142.249V186.898H139.783C139.266 186.898 138.82 186.807 138.446 186.624C138.071 186.442 137.783 186.182 137.581 185.844C137.379 185.502 137.278 185.098 137.278 184.631C137.278 184.16 137.384 183.756 137.596 183.418C137.808 183.08 138.111 182.819 138.506 182.637C138.903 182.455 139.376 182.364 139.922 182.364H143.064V190H141.951ZM136.86 190L139.028 186.202H140.3L138.133 190H136.86ZM146.093 182.364L147.923 185.486L149.752 182.364H151.105L148.639 186.182L151.105 190H149.752L147.923 187.037L146.093 190H144.741L147.167 186.182L144.741 182.364H146.093ZM153.634 190.08C153.389 190.08 153.178 189.992 153.003 189.816C152.827 189.64 152.739 189.43 152.739 189.185C152.739 188.939 152.827 188.729 153.003 188.553C153.178 188.378 153.389 188.29 153.634 188.29C153.879 188.29 154.09 188.378 154.265 188.553C154.441 188.729 154.529 188.939 154.529 189.185C154.529 189.347 154.488 189.496 154.405 189.632C154.325 189.768 154.217 189.877 154.081 189.96C153.949 190.04 153.8 190.08 153.634 190.08ZM153.634 184.412C153.389 184.412 153.178 184.324 153.003 184.148C152.827 183.973 152.739 183.762 152.739 183.517C152.739 183.272 152.827 183.061 153.003 182.886C153.178 182.71 153.389 182.622 153.634 182.622C153.879 182.622 154.09 182.71 154.265 182.886C154.441 183.061 154.529 183.272 154.529 183.517C154.529 183.679 154.488 183.829 154.405 183.964C154.325 184.1 154.217 184.21 154.081 184.293C153.949 184.372 153.8 184.412 153.634 184.412Z" fill="#D0D0D0"/>
<path d="M0.5 151H205" stroke="#D0D0D0"/>
</svg>
