<svg width="15" height="15" viewBox="0 0 15 15" fill="none" xmlns="http://www.w3.org/2000/svg">
<path d="M14.9608 5.43133C14.862 5.1276 14.5926 4.91257 14.2751 4.88384L9.94508 4.49073L8.23382 0.484321C8.10747 0.189975 7.81999 0 7.50001 0C7.18003 0 6.89243 0.189975 6.76689 0.484321L5.05563 4.49073L0.724889 4.88384C0.407425 4.91314 0.138599 5.12818 0.0392629 5.43133C-0.0595011 5.73507 0.0317097 6.06821 0.27181 6.27878L3.54499 9.14889L2.57989 13.3995C2.50928 13.7121 2.63059 14.0352 2.88992 14.2227C3.02931 14.324 3.19307 14.3746 3.35741 14.3746C3.49864 14.3746 3.63997 14.337 3.7662 14.2615L7.50001 12.029L11.2331 14.2615C11.507 14.4252 11.8513 14.4102 12.1101 14.2227C12.3694 14.0352 12.4907 13.7121 12.4201 13.3995L11.455 9.14889L14.7282 6.27878C14.9682 6.06821 15.0595 5.73575 14.9608 5.43133Z" fill="#FFCC01"/>
</svg>
