<svg width="38" height="37" viewBox="0 0 38 37" fill="none" xmlns="http://www.w3.org/2000/svg">
<path d="M14.0434 36.8485C12.7217 36.8485 11.5652 35.676 11.5652 34.3361C11.5652 32.9961 12.7217 31.8237 14.0434 31.8237C15.3652 31.8237 16.5217 32.9961 16.5217 34.3361C16.5217 35.676 15.3652 36.8485 14.0434 36.8485ZM14.0434 33.4986C13.5478 33.4986 13.2174 33.8336 13.2174 34.3361C13.2174 34.8386 13.5478 35.1735 14.0434 35.1735C14.5391 35.1735 14.8695 34.8386 14.8695 34.3361C14.8695 33.8336 14.5391 33.4986 14.0434 33.4986Z" fill="#333333"/>
<path d="M32.2174 36.8485C30.8957 36.8485 29.7391 35.676 29.7391 34.3361C29.7391 32.9961 30.8957 31.8237 32.2174 31.8237C33.5391 31.8237 34.6957 32.9961 34.6957 34.3361C34.6957 35.676 33.5391 36.8485 32.2174 36.8485ZM32.2174 33.4986C31.7217 33.4986 31.3913 33.8336 31.3913 34.3361C31.3913 34.8386 31.7217 35.1735 32.2174 35.1735C32.7131 35.1735 33.0435 34.8386 33.0435 34.3361C33.0435 33.8336 32.7131 33.4986 32.2174 33.4986Z" fill="#333333"/>
<path d="M15.0348 26.7989C13.0522 26.7989 11.4 25.459 11.0696 23.449L8.26087 9.37961C8.26087 9.37961 8.26087 9.37961 8.26087 9.21212L6.77391 1.67493H0.826087C0.330435 1.67493 0 1.33994 0 0.837465C0 0.334986 0.330435 0 0.826087 0H7.43478C7.76522 0 8.09565 0.334986 8.26087 0.669972L9.74783 8.37465H37.1739C37.3391 8.37465 37.6696 8.54215 37.8348 8.70964C38 8.87713 38 9.04463 38 9.37961L35.3565 23.449C35.0261 25.459 33.2087 26.7989 31.2261 26.7989H15.0348ZM10.0783 10.0496L12.7217 23.114C12.887 24.2865 13.8783 25.124 15.2 25.124H31.2261C32.3826 25.124 33.5391 24.2865 33.7043 23.114L36.1826 10.0496H10.0783Z" fill="#333333"/>
</svg>
